<svg width="64" height="64" viewBox="0 0 64 64" fill="none" xmlns="http://www.w3.org/2000/svg">
<path d="M31.9987 45.3334C32.7543 45.3334 33.388 45.0774 33.9 44.5654C34.4103 44.0552 34.6654 43.4223 34.6654 42.6667V34.6667H42.732C43.4876 34.6667 44.1098 34.4107 44.5987 33.8987C45.0876 33.3885 45.332 32.7556 45.332 32C45.332 31.2445 45.076 30.6107 44.564 30.0987C44.0538 29.5885 43.4209 29.3334 42.6654 29.3334H34.6654V21.2667C34.6654 20.5112 34.4103 19.8889 33.9 19.4C33.388 18.9112 32.7543 18.6667 31.9987 18.6667C31.2431 18.6667 30.6103 18.9218 30.1 19.432C29.588 19.944 29.332 20.5778 29.332 21.3334V29.3334H21.2654C20.5098 29.3334 19.8876 29.5885 19.3987 30.0987C18.9098 30.6107 18.6654 31.2445 18.6654 32C18.6654 32.7556 18.9205 33.3885 19.4307 33.8987C19.9427 34.4107 20.5765 34.6667 21.332 34.6667H29.332V42.7334C29.332 43.4889 29.588 44.1112 30.1 44.6C30.6103 45.0889 31.2431 45.3334 31.9987 45.3334ZM31.9987 58.6667C28.3098 58.6667 24.8431 57.9663 21.5987 56.5654C18.3543 55.1663 15.532 53.2667 13.132 50.8667C10.732 48.4667 8.83248 45.6445 7.43336 42.4C6.03248 39.1556 5.33203 35.6889 5.33203 32C5.33203 28.3112 6.03248 24.8445 7.43336 21.6C8.83248 18.3556 10.732 15.5334 13.132 13.1334C15.532 10.7334 18.3543 8.83293 21.5987 7.43204C24.8431 6.03293 28.3098 5.33337 31.9987 5.33337C35.6876 5.33337 39.1543 6.03293 42.3987 7.43204C45.6431 8.83293 48.4654 10.7334 50.8654 13.1334C53.2654 15.5334 55.1649 18.3556 56.564 21.6C57.9649 24.8445 58.6654 28.3112 58.6654 32C58.6654 35.6889 57.9649 39.1556 56.564 42.4C55.1649 45.6445 53.2654 48.4667 50.8654 50.8667C48.4654 53.2667 45.6431 55.1663 42.3987 56.5654C39.1543 57.9663 35.6876 58.6667 31.9987 58.6667ZM31.9987 53.3334C37.9098 53.3334 42.9436 51.256 47.1 47.1014C51.2547 42.9449 53.332 37.9112 53.332 32C53.332 26.0889 51.2547 21.0552 47.1 16.8987C42.9436 12.744 37.9098 10.6667 31.9987 10.6667C26.0876 10.6667 21.0547 12.744 16.9 16.8987C12.7436 21.0552 10.6654 26.0889 10.6654 32C10.6654 37.9112 12.7436 42.9449 16.9 47.1014C21.0547 51.256 26.0876 53.3334 31.9987 53.3334Z" fill="#7E7E7E"/>
</svg>
