<svg width="22" height="19" viewBox="0 0 22 19" fill="none" xmlns="http://www.w3.org/2000/svg">
<path d="M19.8 13V11.5C19.8 10.1 18.4 9 17 9C15.6 9 14.2 10.1 14.2 11.5V13C13.6 13 13 13.6 13 14.2V17.7C13 18.4 13.6 19 14.2 19H19.7C20.4 19 21 18.4 21 17.8V14.3C21 13.6 20.4 13 19.8 13ZM18.5 13H15.5V11.5C15.5 10.7 16.2 10.2 17 10.2C17.8 10.2 18.5 10.7 18.5 11.5V13ZM14 8C13.1 8.7 12.5 9.6 12.3 10.7C11.9 10.9 11.5 11 11 11C9.3 11 8 9.7 8 8C8 6.3 9.3 5 11 5C12.7 5 14 6.3 14 8ZM11 15.5C6 15.5 1.7 12.4 0 8C1.7 3.6 6 0.5 11 0.5C16 0.5 20.3 3.6 22 8C21.8 8.5 21.5 9 21.3 9.5C20.9 8.8 20.4 8.2 19.7 7.8C18 4.5 14.7 2.5 11 2.5C7.2 2.5 3.8 4.6 2.2 8C3.9 11.4 7.3 13.5 11 13.5H11.1C11 13.7 11 14 11 14.2V15.5Z" fill="#333333"/>
</svg>
