<svg width="99" height="40" viewBox="0 0 99 40" fill="none" xmlns="http://www.w3.org/2000/svg">
<rect width="39.9644" height="40" rx="2.66667" fill="#3990FF"/>
<path d="M24.5935 13.4615C24.5935 12.8461 24.0555 12.3077 23.4407 12.3077H16.5238C15.9089 12.3077 15.3709 12.8461 15.3709 13.4615V34.2308C15.3709 34.8461 15.9089 35.3846 16.5238 35.3846H23.4407C24.0555 35.3846 24.5935 34.8461 24.5935 34.2308V13.4615Z" fill="white"/>
<path d="M10.7597 13.4615C10.7597 12.8461 10.2217 12.3077 9.60684 12.3077H2.68993C2.07509 12.3077 1.53711 12.8461 1.53711 13.4615V37.3077C1.53711 37.9231 2.07509 38.4615 2.68993 38.4615H9.60684C10.2217 38.4615 10.7597 37.9231 10.7597 37.3077V13.4615Z" fill="white"/>
<path d="M38.4273 13.4615C38.4273 12.8461 37.8893 12.3077 37.2745 12.3077H30.3576C29.7428 12.3077 29.2048 12.8461 29.2048 13.4615V31.1538C29.2048 31.7692 29.7428 32.3077 30.3576 32.3077H37.2745C37.8893 32.3077 38.4273 31.7692 38.4273 31.1538V13.4615Z" fill="white"/>
<path d="M38.4273 2.6923C38.4273 2.07691 37.8893 1.53845 37.2745 1.53845H2.68993C2.07509 1.53845 1.53711 2.07691 1.53711 2.6923V6.53845C1.53711 7.15384 2.07509 7.6923 2.68993 7.6923H37.2745C37.8893 7.6923 38.4273 7.15384 38.4273 6.53845V2.6923Z" fill="white"/>
<path d="M55.8704 33.2548C54.7958 33.2548 53.9655 32.9615 53.3793 32.3748C52.7932 31.7637 52.5001 30.9204 52.5001 29.8448V12.5748H46.7486C45.8449 12.5748 45.1489 12.3426 44.6604 11.8782C44.1964 11.3893 43.9644 10.7048 43.9644 9.82483C43.9644 8.92038 44.1964 8.23594 44.6604 7.7715C45.1489 7.30705 45.8449 7.07483 46.7486 7.07483H55.8704H64.9923C65.896 7.07483 66.5798 7.30705 67.0438 7.7715C67.5323 8.23594 67.7765 8.92038 67.7765 9.82483C67.7765 10.7048 67.5323 11.3893 67.0438 11.8782C66.5798 12.3426 65.896 12.5748 64.9923 12.5748H59.2408V29.8448C59.2408 30.9204 58.9599 31.7637 58.3982 32.3748C57.8365 32.9615 56.9939 33.2548 55.8704 33.2548Z" fill="#625B71"/>
<path d="M73.6705 33.255C72.6936 33.255 71.9365 32.9861 71.3992 32.4483C70.8863 31.9106 70.6299 31.1528 70.6299 30.175V9.82499C70.6299 8.82277 70.9107 8.065 71.4724 7.55166C72.0342 7.01388 72.8279 6.745 73.8537 6.745C74.7084 6.745 75.3801 6.91611 75.8685 7.25833C76.3814 7.57611 76.8454 8.11388 77.2606 8.87166L84.4943 21.8703L91.6944 8.87166C92.134 8.11388 92.5981 7.57611 93.0865 7.25833C93.5994 6.91611 94.2832 6.745 95.138 6.745C96.1149 6.745 96.8598 7.01388 97.3727 7.55166C97.91 8.065 98.1786 8.82277 98.1786 9.82499V30.175C98.1786 31.1528 97.9222 31.9106 97.4093 32.4483C96.8965 32.9861 96.1393 33.255 95.138 33.255C94.1611 33.255 93.404 32.9861 92.8667 32.4483C92.3538 31.9106 92.0974 31.1528 92.0974 30.175V18.9008L86.9686 27.8283C86.6267 28.3661 86.2604 28.7694 85.8696 29.0383C85.5033 29.3072 85.0026 29.4417 84.3676 29.4417C83.757 29.4417 83.2564 29.3072 82.8656 29.0383C82.4749 28.7694 82.1207 28.3661 81.8032 27.8283L76.7111 18.9878V30.175C76.7111 31.1528 76.4547 31.9106 75.9418 32.4483C75.4289 32.9861 74.6718 33.255 73.6705 33.255Z" fill="#625B71"/>
</svg>
