<svg width="299" height="40" viewBox="0 0 299 40" fill="none" xmlns="http://www.w3.org/2000/svg">
<rect width="39.9644" height="40" rx="2.66667" fill="#3990FF"/>
<path d="M24.5935 13.4615C24.5935 12.8461 24.0555 12.3077 23.4407 12.3077H16.5238C15.9089 12.3077 15.3709 12.8461 15.3709 13.4615V34.2308C15.3709 34.8461 15.9089 35.3846 16.5238 35.3846H23.4407C24.0555 35.3846 24.5935 34.8461 24.5935 34.2308V13.4615Z" fill="white"/>
<path d="M10.7597 13.4615C10.7597 12.8461 10.2217 12.3077 9.60684 12.3077H2.68993C2.07509 12.3077 1.53711 12.8461 1.53711 13.4615V37.3077C1.53711 37.9231 2.07509 38.4615 2.68993 38.4615H9.60684C10.2217 38.4615 10.7597 37.9231 10.7597 37.3077V13.4615Z" fill="white"/>
<path d="M38.4273 13.4615C38.4273 12.8461 37.8893 12.3077 37.2745 12.3077H30.3576C29.7428 12.3077 29.2048 12.8461 29.2048 13.4615V31.1538C29.2048 31.7692 29.7428 32.3077 30.3576 32.3077H37.2745C37.8893 32.3077 38.4273 31.7692 38.4273 31.1538V13.4615Z" fill="white"/>
<path d="M38.4273 2.6923C38.4273 2.07691 37.8893 1.53845 37.2745 1.53845H2.68993C2.07509 1.53845 1.53711 2.07691 1.53711 2.6923V6.53845C1.53711 7.15384 2.07509 7.6923 2.68993 7.6923H37.2745C37.8893 7.6923 38.4273 7.15384 38.4273 6.53845V2.6923Z" fill="white"/>
<path d="M56.1999 33.25C55.1253 33.25 54.295 32.9566 53.7088 32.37C53.1227 31.7588 52.8296 30.9155 52.8296 29.84V12.57H47.0781C46.1744 12.57 45.4784 12.3377 44.9899 11.8733C44.5259 11.3844 44.2939 10.7 44.2939 9.81996C44.2939 8.91551 44.5259 8.23107 44.9899 7.76663C45.4784 7.30218 46.1744 7.06996 47.0781 7.06996H56.1999H65.3218C66.2255 7.06996 66.9093 7.30218 67.3733 7.76663C67.8618 8.23107 68.106 8.91551 68.106 9.81996C68.106 10.7 67.8618 11.3844 67.3733 11.8733C66.9093 12.3377 66.2255 12.57 65.3218 12.57H59.5703V29.84C59.5703 30.9155 59.2894 31.7588 58.7277 32.37C58.166 32.9566 57.3234 33.25 56.1999 33.25Z" fill="#625B71"/>
<path d="M73.6377 34C72.5631 34 71.7328 33.7066 71.1466 33.12C70.5605 32.5088 70.2674 31.6655 70.2674 30.59V11.23C70.2674 10.13 70.5605 9.28663 71.1466 8.69996C71.7572 8.11329 72.5998 7.81996 73.6744 7.81996H82.6863C85.6171 7.81996 87.8762 8.54107 89.4636 9.98329C91.0755 11.4011 91.8815 13.3811 91.8815 15.9233C91.8815 17.5611 91.5151 18.9911 90.7825 20.2133C90.0742 21.4111 89.0362 22.34 87.6686 23C87.2436 23.201 86.7869 23.3703 86.2984 23.5077C86.7335 23.6357 87.1414 23.8209 87.522 24.0633C88.328 24.5522 88.9996 25.31 89.5369 26.3366L91.3686 29.6366C91.7594 30.3455 91.9425 31.0422 91.9181 31.7266C91.8937 32.3866 91.625 32.9366 91.1122 33.3766C90.6237 33.7922 89.9032 34 88.9508 34C87.9983 34 87.2168 33.8044 86.6062 33.4133C86.02 33.0222 85.4949 32.4111 85.0309 31.58L81.6972 25.4566C81.4041 24.9188 81.0256 24.5522 80.5616 24.3566C80.122 24.1366 79.6091 24.0266 79.0229 24.0266H77.0081V30.59C77.0081 31.6655 76.7272 32.5088 76.1655 33.12C75.6038 33.7066 74.7612 34 73.6377 34ZM77.0081 19.26H81.4774C82.7718 19.26 83.7609 19.0033 84.4448 18.49C85.1286 17.9766 85.4705 17.1822 85.4705 16.1066C85.4705 15.08 85.1286 14.31 84.4448 13.7966C83.7609 13.2588 82.7718 12.99 81.4774 12.99H77.0081V19.26Z" fill="#3990FF"/>
<path d="M99.8401 32.92C98.6922 32.92 97.813 32.6266 97.2024 32.04C96.6163 31.4289 96.3232 30.5611 96.3232 29.4366V10.5533C96.3232 9.42885 96.6163 8.57329 97.2024 7.98663C97.813 7.37551 98.6922 7.06996 99.8401 7.06996H112.259C113.138 7.06996 113.798 7.28996 114.237 7.72996C114.677 8.16996 114.897 8.80551 114.897 9.63662C114.897 10.4922 114.677 11.1522 114.237 11.6166C113.798 12.0566 113.138 12.2766 112.259 12.2766H102.771V17.19H111.453C112.308 17.19 112.955 17.41 113.395 17.85C113.859 18.29 114.091 18.9377 114.091 19.7933C114.091 20.6488 113.859 21.2966 113.395 21.7366C112.955 22.1766 112.308 22.3966 111.453 22.3966H102.771V27.7133H112.259C113.138 27.7133 113.798 27.9455 114.237 28.41C114.677 28.85 114.897 29.4855 114.897 30.3166C114.897 31.1722 114.677 31.82 114.237 32.26C113.798 32.7 113.138 32.92 112.259 32.92H99.8401Z" fill="#3990FF"/>
<path d="M122.3 32.92C121.225 32.92 120.382 32.6266 119.772 32.04C119.186 31.4289 118.893 30.5855 118.893 29.51V10.4433C118.893 9.34329 119.186 8.49996 119.772 7.91329C120.358 7.32663 121.188 7.03329 122.263 7.03329C123.362 7.03329 124.192 7.32663 124.754 7.91329C125.34 8.49996 125.633 9.34329 125.633 10.4433V27.31H134.572C135.5 27.31 136.208 27.5544 136.697 28.0433C137.21 28.5077 137.466 29.1922 137.466 30.0966C137.466 31.0011 137.21 31.6977 136.697 32.1866C136.208 32.6755 135.5 32.92 134.572 32.92H122.3Z" fill="#3990FF"/>
<path d="M143.796 32.92C142.721 32.92 141.878 32.6266 141.268 32.04C140.682 31.4289 140.389 30.5855 140.389 29.51V10.4433C140.389 9.34329 140.682 8.49996 141.268 7.91329C141.854 7.32663 142.684 7.03329 143.759 7.03329C144.858 7.03329 145.688 7.32663 146.25 7.91329C146.836 8.49996 147.129 9.34329 147.129 10.4433V27.31H156.068C156.996 27.31 157.704 27.5544 158.193 28.0433C158.706 28.5077 158.962 29.1922 158.962 30.0966C158.962 31.0011 158.706 31.6977 158.193 32.1866C157.704 32.6755 156.996 32.92 156.068 32.92H143.796Z" fill="#3990FF"/>
<path d="M172.909 33.3233C170.296 33.3233 168 32.7733 166.022 31.6733C164.044 30.5489 162.505 28.9844 161.406 26.98C160.332 24.9755 159.794 22.6411 159.794 19.9766C159.794 17.9722 160.1 16.1511 160.71 14.5133C161.345 12.8755 162.237 11.47 163.384 10.2966C164.557 9.12329 165.949 8.23107 167.561 7.61996C169.173 6.9844 170.955 6.66663 172.909 6.66663C175.522 6.66663 177.806 7.21663 179.76 8.31663C181.738 9.41663 183.277 10.9688 184.376 12.9733C185.475 14.9533 186.024 17.2877 186.024 19.9766C186.024 21.9811 185.707 23.8022 185.072 25.44C184.461 27.0777 183.57 28.4955 182.397 29.6933C181.25 30.8666 179.87 31.7711 178.258 32.4066C176.646 33.0177 174.863 33.3233 172.909 33.3233ZM172.909 27.6766C174.204 27.6766 175.303 27.3711 176.206 26.76C177.11 26.1488 177.806 25.2688 178.294 24.12C178.783 22.9711 179.027 21.59 179.027 19.9766C179.027 17.5566 178.49 15.6744 177.415 14.33C176.341 12.9855 174.839 12.3133 172.909 12.3133C171.639 12.3133 170.54 12.6188 169.612 13.23C168.709 13.8166 168.013 14.6844 167.524 15.8333C167.036 16.9577 166.791 18.3388 166.791 19.9766C166.791 22.3966 167.329 24.2911 168.403 25.66C169.478 27.0044 170.98 27.6766 172.909 27.6766Z" fill="#3990FF"/>
<path d="M193.185 33.25C192.208 33.25 191.451 32.9811 190.913 32.4433C190.4 31.9055 190.144 31.1477 190.144 30.17V9.81996C190.144 8.81774 190.425 8.05996 190.987 7.54663C191.548 7.00885 192.342 6.73996 193.368 6.73996C194.223 6.73996 194.894 6.91107 195.383 7.25329C195.896 7.57107 196.36 8.10885 196.775 8.86663L204.009 21.8653L211.209 8.86663C211.648 8.10885 212.112 7.57107 212.601 7.25329C213.114 6.91107 213.797 6.73996 214.652 6.73996C215.629 6.73996 216.374 7.00885 216.887 7.54663C217.424 8.05996 217.693 8.81774 217.693 9.81996V30.17C217.693 31.1477 217.436 31.9055 216.924 32.4433C216.411 32.9811 215.654 33.25 214.652 33.25C213.675 33.25 212.918 32.9811 212.381 32.4433C211.868 31.9055 211.612 31.1477 211.612 30.17V18.8958L206.483 27.8233C206.141 28.3611 205.775 28.7644 205.384 29.0333C205.017 29.3022 204.517 29.4366 203.882 29.4366C203.271 29.4366 202.771 29.3022 202.38 29.0333C201.989 28.7644 201.635 28.3611 201.317 27.8233L196.225 18.9828V30.17C196.225 31.1477 195.969 31.9055 195.456 32.4433C194.943 32.9811 194.186 33.25 193.185 33.25Z" fill="#625B71"/>
<path d="M234.97 33.3233C232.357 33.3233 230.061 32.7733 228.083 31.6733C226.104 30.5489 224.566 28.9844 223.467 26.98C222.392 24.9755 221.855 22.6411 221.855 19.9766C221.855 17.9722 222.16 16.1511 222.771 14.5133C223.406 12.8755 224.297 11.47 225.445 10.2966C226.617 9.12329 228.009 8.23107 229.621 7.61996C231.233 6.9844 233.016 6.66663 234.97 6.66663C237.583 6.66663 239.866 7.21663 241.82 8.31663C243.799 9.41663 245.337 10.9688 246.436 12.9733C247.535 14.9533 248.085 17.2877 248.085 19.9766C248.085 21.9811 247.767 23.8022 247.132 25.44C246.522 27.0777 245.63 28.4955 244.458 29.6933C243.31 30.8666 241.93 31.7711 240.318 32.4066C238.706 33.0177 236.924 33.3233 234.97 33.3233ZM234.97 27.6766C236.264 27.6766 237.363 27.3711 238.267 26.76C239.17 26.1488 239.866 25.2688 240.355 24.12C240.843 22.9711 241.088 21.59 241.088 19.9766C241.088 17.5566 240.55 15.6744 239.476 14.33C238.401 12.9855 236.899 12.3133 234.97 12.3133C233.7 12.3133 232.601 12.6188 231.673 13.23C230.769 13.8166 230.073 14.6844 229.585 15.8333C229.096 16.9577 228.852 18.3388 228.852 19.9766C228.852 22.3966 229.389 24.2911 230.464 25.66C231.538 27.0044 233.04 27.6766 234.97 27.6766Z" fill="#3990FF"/>
<path d="M255.538 32.92C254.464 32.92 253.621 32.6266 253.01 32.04C252.424 31.4289 252.131 30.5855 252.131 29.51V10.4433C252.131 9.34329 252.424 8.49996 253.01 7.91329C253.597 7.32663 254.427 7.03329 255.502 7.03329C256.601 7.03329 257.431 7.32663 257.993 7.91329C258.579 8.49996 258.872 9.34329 258.872 10.4433V27.31H267.811C268.739 27.31 269.447 27.5544 269.935 28.0433C270.448 28.5077 270.705 29.1922 270.705 30.0966C270.705 31.0011 270.448 31.6977 269.935 32.1866C269.447 32.6755 268.739 32.92 267.811 32.92H255.538Z" fill="#3990FF"/>
<path d="M274.514 33.25C273.757 33.25 273.122 33.0788 272.609 32.7366C272.096 32.37 271.779 31.8811 271.657 31.27C271.535 30.6344 271.645 29.9255 271.987 29.1433L281.108 9.48996C281.548 8.53663 282.085 7.83996 282.72 7.39996C283.38 6.95996 284.125 6.73996 284.955 6.73996C285.785 6.73996 286.506 6.95996 287.116 7.39996C287.751 7.83996 288.301 8.53663 288.765 9.48996L297.887 29.1433C298.278 29.9255 298.412 30.6344 298.29 31.27C298.192 31.9055 297.887 32.3944 297.374 32.7366C296.885 33.0788 296.275 33.25 295.542 33.25C294.565 33.25 293.808 33.03 293.271 32.59C292.758 32.15 292.294 31.4411 291.879 30.4633L290.695 27.6766H279.178L277.995 30.4633C277.555 31.4411 277.103 32.15 276.639 32.59C276.175 33.03 275.467 33.25 274.514 33.25ZM284.882 14.11L281.369 22.5066H288.498L284.955 14.11H284.882Z" fill="#3990FF"/>
</svg>
